ply
format ascii 1.0
comment Created by Blender 2.79 (sub 0) - www.blender.org, source file: ''
element vertex 90
property float x
property float y
property float z
property float nx
property float ny
property float nz
property float s
property float t
element face 58
property list uchar uint vertex_indices
end_header
3.523350 -0.818560 4.376580 0.577349 -0.577349 -0.577319 2.365740 4.407960
1.738560 -0.818560 5.139800 -0.577349 -0.577349 0.577349 1.167350 5.176660
1.738560 -0.818560 4.376580 -0.577349 -0.577349 -0.577349 1.167350 4.407960
3.523350 -0.818560 5.139800 0.577349 -0.577349 0.577349 2.365740 5.176660
3.523350 -0.818560 4.376580 0.577349 -0.577349 -0.577319 2.938640 0.824429
3.523350 -0.735883 5.139800 0.666646 -0.333323 0.666646 3.451110 0.741159
3.523350 -0.818560 5.139800 0.577349 -0.577349 0.577349 3.451110 0.824429
3.523350 -0.735883 4.376580 0.666646 -0.333323 -0.666646 2.938640 0.741159
3.523350 -0.818560 4.376580 0.577349 -0.577349 -0.577319 2.365740 0.824429
3.440670 -0.735883 4.376580 -0.316202 0.000000 -0.948668 2.310230 0.741159
3.523350 -0.735883 4.376580 0.666646 -0.333323 -0.666646 2.365740 0.741159
1.821230 -0.735883 4.376580 0.267251 0.534501 -0.801782 1.222860 0.741159
1.738560 -0.735883 4.376580 -0.666646 0.333323 -0.666646 1.167350 0.741159
1.738560 -0.818560 4.376580 -0.577349 -0.577349 -0.577349 1.167350 0.824429
1.738560 -0.818560 5.139800 -0.577349 -0.577349 0.577349 -3.451110 0.824429
1.738560 -0.735883 4.376580 -0.666646 0.333323 -0.666646 -2.938640 0.741159
1.738560 -0.818560 4.376580 -0.577349 -0.577349 -0.577349 -2.938640 0.824429
1.738560 -0.735883 5.139800 -0.666646 0.333323 0.666646 -3.451110 0.741159
1.738560 -0.818560 5.139800 -0.577349 -0.577349 0.577349 -1.167350 0.824429
1.821230 -0.735883 5.139800 0.267251 0.534501 0.801782 -1.222860 0.741159
1.738560 -0.735883 5.139800 -0.666646 0.333323 0.666646 -1.167350 0.741159
3.523350 -0.818560 5.139800 0.577349 -0.577349 0.577349 -2.365740 0.824429
3.440670 -0.735883 5.139800 -0.316202 0.000000 0.948668 -2.310230 0.741159
3.523350 -0.735883 5.139800 0.666646 -0.333323 0.666646 -2.365740 0.741159
3.440670 -0.735883 5.139800 -0.316202 0.000000 0.948668 2.310230 5.176660
3.523350 -0.735883 4.376580 0.666646 -0.333323 -0.666646 2.365740 4.407960
3.523350 -0.735883 5.139800 0.666646 -0.333323 0.666646 2.365740 5.176660
3.440670 -0.735883 4.376580 -0.316202 0.000000 -0.948668 2.310230 4.407960
3.440670 -0.735883 5.139800 -0.316202 0.000000 0.948668 -3.451110 0.741159
3.440670 -0.730251 4.376580 0.000000 -1.000000 0.000000 -2.938640 0.735486
3.440670 -0.735883 4.376580 -0.316202 0.000000 -0.948668 -2.938640 0.741159
3.440670 -0.730251 5.139800 0.000000 -1.000000 0.000000 -3.451110 0.735486
3.440670 -0.730251 5.139800 0.000000 -1.000000 0.000000 -2.310230 0.735486
3.523350 -0.730251 5.139800 0.000000 -1.000000 0.000000 -2.365740 0.735486
3.523350 -0.730251 5.139800 0.000000 -1.000000 0.000000 3.451110 0.735486
3.523350 -0.730251 4.376580 0.000000 -1.000000 0.000000 2.938640 0.735486
3.440670 -0.730251 4.376580 0.000000 -1.000000 0.000000 2.310230 0.735486
3.523350 -0.730251 4.376580 0.000000 -1.000000 0.000000 2.365740 0.735486
3.523350 -0.000001 4.376580 -0.577349 0.577349 0.577349 -2.365740 0.000000
3.440670 -0.730251 4.376580 0.000000 -1.000000 0.000000 -2.310230 0.735486
3.523350 -0.730251 4.376580 0.000000 -1.000000 0.000000 -2.365740 0.735486
3.440670 -0.000001 4.376580 0.577349 0.577349 0.577349 -2.310230 0.000000
3.440670 -0.000001 4.376580 0.577349 0.577349 0.577349 -2.310230 4.407960
3.523350 -0.000001 5.139800 -0.577349 0.577349 -0.577349 -2.365740 5.176660
3.523350 -0.000001 4.376580 -0.577349 0.577349 0.577349 -2.365740 4.407960
3.440670 -0.000001 5.139800 0.577349 0.577349 -0.577349 -2.310230 5.176660
3.440670 -0.000001 5.139800 0.577349 0.577349 -0.577349 3.451110 0.000000
3.440670 -0.730251 4.376580 0.000000 -1.000000 0.000000 2.938640 0.735486
3.440670 -0.000001 4.376580 0.577349 0.577349 0.577349 2.938640 0.000000
3.440670 -0.730251 5.139800 0.000000 -1.000000 0.000000 3.451110 0.735486
3.440670 -0.000001 5.139800 0.577349 0.577349 -0.577349 2.310230 0.000000
3.523350 -0.730251 5.139800 0.000000 -1.000000 0.000000 2.365740 0.735486
3.440670 -0.730251 5.139800 0.000000 -1.000000 0.000000 2.310230 0.735486
3.523350 -0.000001 5.139800 -0.577349 0.577349 -0.577349 2.365740 0.000000
3.523350 -0.000001 4.376580 -0.577349 0.577349 0.577349 -2.938640 0.000000
3.523350 -0.730251 5.139800 0.000000 -1.000000 0.000000 -3.451110 0.735486
3.523350 -0.000001 5.139800 -0.577349 0.577349 -0.577349 -3.451110 0.000000
3.523350 -0.730251 4.376580 0.000000 -1.000000 0.000000 -2.938640 0.735486
3.440670 -0.730251 5.139800 0.000000 -1.000000 0.000000 2.310230 5.176660
3.523350 -0.730251 4.376580 0.000000 -1.000000 0.000000 2.365740 4.407960
3.523350 -0.730251 5.139800 0.000000 -1.000000 0.000000 2.365740 5.176660
3.440670 -0.730251 4.376580 0.000000 -1.000000 0.000000 2.310230 4.407960
1.821230 -0.735883 4.376580 0.267251 0.534501 -0.801782 -1.222860 4.407960
3.440670 -0.735883 5.139800 -0.316202 0.000000 0.948668 -2.310230 5.176660
3.440670 -0.735883 4.376580 -0.316202 0.000000 -0.948668 -2.310230 4.407960
1.821230 -0.735883 5.139800 0.267251 0.534501 0.801782 -1.222860 5.176660
1.738560 -0.735883 4.376580 -0.666646 0.333323 -0.666646 -1.167350 4.407960
1.738560 -0.735883 5.139800 -0.666646 0.333323 0.666646 -1.167350 5.176660
1.738560 -0.730251 4.376580 -0.666646 0.333323 -0.666646 -2.938640 0.735486
1.738560 -0.730251 5.139800 -0.666646 0.333323 0.666646 -3.451110 0.735486
1.821230 -0.730251 5.139800 0.666646 0.333323 0.666646 -1.222860 0.735486
1.738560 -0.730251 5.139800 -0.666646 0.333323 0.666646 -1.167350 0.735486
1.821230 -0.735883 4.376580 0.267251 0.534501 -0.801782 2.938640 0.741159
1.821230 -0.730251 5.139800 0.666646 0.333323 0.666646 3.451110 0.735486
1.821230 -0.735883 5.139800 0.267251 0.534501 0.801782 3.451110 0.741159
1.821230 -0.730251 4.376580 0.666646 0.333323 -0.666646 2.938640 0.735486
1.821230 -0.730251 4.376580 0.666646 0.333323 -0.666646 1.222860 0.735486
1.738560 -0.730251 4.376580 -0.666646 0.333323 -0.666646 1.167350 0.735486
1.821230 -0.000001 4.376580 0.707083 0.000000 -0.707083 1.222860 0.000000
1.738560 -0.000001 4.376580 -0.707083 0.000000 -0.707083 1.167350 0.000000
1.738560 -0.000001 4.376580 -0.707083 0.000000 -0.707083 -2.938640 -0.000000
1.738560 -0.000001 5.139800 -0.707083 0.000000 0.707083 -3.451110 -0.000000
1.821230 -0.000001 5.139800 0.707083 0.000000 0.707083 -1.222860 0.000000
1.738560 -0.000001 5.139800 -0.707083 0.000000 0.707083 -1.167350 0.000000
1.821230 -0.730251 5.139800 0.666646 0.333323 0.666646 -1.222860 5.176660
1.738560 -0.730251 4.376580 -0.666646 0.333323 -0.666646 -1.167350 4.407960
1.738560 -0.730251 5.139800 -0.666646 0.333323 0.666646 -1.167350 5.176660
1.821230 -0.730251 4.376580 0.666646 0.333323 -0.666646 -1.222860 4.407960
1.821230 -0.000001 5.139800 0.707083 0.000000 0.707083 3.451110 -0.000000
1.821230 -0.000001 4.376580 0.707083 0.000000 -0.707083 2.938640 0.000000
3 0 1 2
3 1 0 3
3 4 5 6
3 5 4 7
3 8 9 10
3 9 8 11
3 11 8 12
3 12 8 13
3 14 15 16
3 15 14 17
3 18 19 20
3 19 18 21
3 21 22 19
3 22 21 23
3 24 25 26
3 25 24 27
3 28 29 30
3 29 28 31
3 23 32 22
3 32 23 33
3 7 34 5
3 34 7 35
3 10 36 37
3 36 10 9
3 38 39 40
3 39 38 41
3 42 43 44
3 43 42 45
3 46 47 48
3 47 46 49
3 50 51 52
3 51 50 53
3 54 55 56
3 55 54 57
3 58 59 60
3 59 58 61
3 62 63 64
3 63 62 65
3 66 65 62
3 65 66 67
3 17 68 15
3 68 17 69
3 20 70 71
3 70 20 19
3 72 73 74
3 73 72 75
3 12 76 11
3 76 12 77
3 77 78 76
3 78 77 79
3 69 80 68
3 80 69 81
3 71 82 83
3 82 71 70
3 84 85 86
3 85 84 87
3 75 88 73
3 88 75 89
